<svg width="370" height="114" viewBox="0 0 370 114" fill="none" xmlns="http://www.w3.org/2000/svg">
<path d="M329.953 32.4667C321.682 46.4175 316.894 53.393 309.059 53.393C301.224 53.393 296.435 46.8535 288.165 32.4667C279.894 18.0799 269.447 0.205444 247.247 0.205444C225.047 0.205444 214.6 18.0799 206.329 32.4667C198.059 46.4175 193.271 53.393 185.435 53.393C177.6 53.393 172.812 46.8535 164.541 32.4667C156.271 18.0799 145.824 0.205444 123.623 0.205444C101.424 0.205444 90.9765 18.0799 82.7059 32.4667C74.4353 46.4175 69.6471 53.393 61.8118 53.393C53.9765 53.393 49.1882 46.8535 40.9176 32.4667C32.647 18.0799 22.2 0.205444 0 0.205444V113.795H370V0.205444C348.671 0.205444 338.223 18.0799 329.953 32.4667Z" fill="#262B69"/>
</svg>
