<svg width="40" height="39" viewBox="0 0 40 39" fill="none" xmlns="http://www.w3.org/2000/svg">
<path d="M36.4514 29.2003C35.9609 28.1177 34.8644 27.4188 33.6578 27.4188H29.059L28.0744 24.7607C28.7012 24.4203 29.1311 23.7724 29.1311 23.0213V22.8418C29.1311 22.6262 29.0957 22.4136 29.0272 22.2107L27.908 18.9156V4.60257H29.1311V1H1V4.60257H2.22309V38.2265H27.908V27.8253L30.1512 33.8818C29.536 34.3183 29.1311 35.0238 29.1311 35.8248C29.1311 37.1493 30.2283 38.2265 31.5773 38.2265C32.4787 38.2265 33.2591 37.7402 33.6835 37.0257H36.8788C38.0016 37.0257 38.9159 36.1286 38.9159 35.0256C38.9159 34.6654 38.8174 34.3129 38.6303 34.0043L36.4514 29.2003ZM22.4041 35.8248C22.4041 36.4871 21.8556 37.0257 21.181 37.0257C20.5065 37.0257 19.9579 36.4871 19.9579 35.8248V22.015H18.7348V35.8248C18.7348 36.4871 18.1863 37.0257 17.5118 37.0257C16.8372 37.0257 16.2887 36.4871 16.2887 35.8248V16.6111H15.0656V23.8162H14.454C13.7795 23.8162 13.2309 23.2777 13.2309 22.6154V19.6133C13.2309 16.6333 15.7004 14.2094 18.7348 14.2094H20.1726C23.0726 14.2094 25.6374 16.0239 26.5541 18.7252L27.8665 22.5908C27.8946 22.6718 27.908 22.7559 27.908 22.8418V23.0213C27.908 23.4596 27.5448 23.8162 27.0977 23.8162C26.7486 23.8162 26.4397 23.5977 26.3296 23.2723L24.0681 16.6111H22.4041V35.8248ZM21.7926 4.60257V6.56236C21.0985 6.08562 20.2558 5.80342 19.3464 5.80342C16.9858 5.80342 15.0656 7.68936 15.0656 10.0064C15.0656 11.349 15.7126 12.5438 16.7143 13.3142C13.9892 14.1584 12.0078 16.6628 12.0078 19.6133V22.6154C12.0078 23.9399 13.105 25.0171 14.454 25.0171H15.0656V35.8248C15.0656 36.2643 15.1952 36.6708 15.4056 37.0257H8.33856V4.60257H21.7926ZM19.3464 13.0086C17.6604 13.0086 16.2887 11.6618 16.2887 10.0064C16.2887 8.35103 17.6604 7.00428 19.3464 7.00428C21.0324 7.00428 22.4041 8.35103 22.4041 10.0064C22.4041 11.6618 21.0324 13.0086 19.3464 13.0086ZM26.685 16.3439C25.586 14.799 23.9526 13.6894 22.0812 13.2367C23.0249 12.4652 23.6272 11.3033 23.6272 10.0064C23.6272 9.21865 23.4016 8.48373 23.0157 7.85268V4.60257H26.685V16.3439ZM2.22309 2.20086H27.908V3.40171H2.22309V2.20086ZM3.44619 4.60257H7.11547V37.0257H3.44619V4.60257ZM23.2872 37.0257C23.4976 36.6708 23.6272 36.2643 23.6272 35.8248V19.1101L25.1689 23.6517C25.4013 24.3362 25.986 24.828 26.685 24.9703V37.0257H23.2872ZM31.5773 37.0257C30.9028 37.0257 30.3542 36.4871 30.3542 35.8248C30.3542 35.1625 30.9028 34.6239 31.5773 34.6239C32.2519 34.6239 32.8004 35.1625 32.8004 35.8248C32.8004 36.4871 32.2519 37.0257 31.5773 37.0257ZM36.8782 35.8248H34.0235C34.0235 34.5003 32.9264 33.4231 31.5773 33.4231C31.4801 33.4231 31.3877 33.4405 31.2936 33.4513L29.5042 28.6197H33.6584C34.3825 28.6197 35.0399 29.0388 35.3347 29.6884L37.5295 34.5279L37.5693 34.6017C37.65 34.729 37.6928 34.8755 37.6928 35.0256C37.6928 35.4663 37.3277 35.8248 36.8782 35.8248Z" fill="white" stroke="white" stroke-width="0.25"/>
<path d="M34.0235 20.3554L36.8476 14.8098H31.1993L34.0235 20.3554ZM34.0235 17.6703L33.1783 16.0107H34.8686L34.0235 17.6703Z" fill="white" stroke="white" stroke-width="0.25"/>
<path d="M31.1993 13.609H36.8476L34.0235 8.06348L31.1993 13.609ZM33.1783 12.4082L34.0235 10.7486L34.8686 12.4082H33.1783Z" fill="white" stroke="white" stroke-width="0.25"/>
<path d="M37.0813 5.80334H30.9659C29.9544 5.80334 29.1312 6.61152 29.1312 7.60463V20.814C29.1312 21.8071 29.9544 22.6153 30.9659 22.6153H37.0813C38.0928 22.6153 38.916 21.8071 38.916 20.814V7.60463C38.916 6.61152 38.0928 5.80334 37.0813 5.80334ZM37.6929 20.814C37.6929 21.1455 37.4183 21.4145 37.0813 21.4145H30.9659C30.6289 21.4145 30.3543 21.1455 30.3543 20.814V7.60463C30.3543 7.27319 30.6289 7.0042 30.9659 7.0042H37.0813C37.4183 7.0042 37.6929 7.27319 37.6929 7.60463V20.814Z" fill="white" stroke="white" stroke-width="0.25"/>
<path d="M9.56152 5.80334H10.7846V7.0042H9.56152V5.80334Z" fill="white"/>
<path d="M12.0077 5.80334H13.2308V7.0042H12.0077V5.80334Z" fill="white"/>
<path d="M14.4541 5.80334H15.6772V7.0042H14.4541V5.80334Z" fill="white"/>
</svg>
