<svg width="35" height="39" viewBox="0 0 35 39" fill="none" xmlns="http://www.w3.org/2000/svg">
<path d="M1.28116 19.6587C1.14156 19.5191 0.947925 19.4388 0.750534 19.4388C0.553144 19.4388 0.359506 19.5191 0.219907 19.6587C0.0803072 19.7983 0 19.992 0 20.1894C0 20.3868 0.0803072 20.5804 0.219907 20.7199C0.359506 20.8596 0.553144 20.9399 0.750534 20.9399C0.947925 20.9399 1.14156 20.8596 1.28116 20.7199C1.42076 20.5804 1.50107 20.3868 1.50107 20.1894C1.50107 19.992 1.42076 19.7983 1.28116 19.6587Z" fill="white"/>
<path d="M33.6239 10.0572H30.1715V2.77773C30.1715 1.24611 28.9254 0 27.3938 0H2.77773C1.24611 0 0 1.24611 0 2.77773V17.3373C0 17.7519 0.336014 18.0879 0.750534 18.0879C1.16505 18.0879 1.50107 17.7519 1.50107 17.3373V2.77773C1.50107 2.0738 2.0738 1.50107 2.77773 1.50107H27.3938C28.0977 1.50107 28.6704 2.0738 28.6704 2.77773V10.0572H25.218C24.8034 10.0572 24.4674 10.3932 24.4674 10.8077V27.6197C24.4674 28.0341 24.8034 28.3702 25.218 28.3702H28.6704V35.6496C28.6704 36.3536 28.0977 36.9263 27.3938 36.9263H2.77773C2.0738 36.9263 1.50107 36.3536 1.50107 35.6496V23.4167C1.50107 23.0022 1.16505 22.6661 0.750534 22.6661C0.336014 22.6661 0 23.0022 0 23.4167V35.6496C0 37.1812 1.24611 38.4274 2.77773 38.4274H27.3938C28.9254 38.4274 30.1715 37.1812 30.1715 35.6496V28.3702H33.6239C34.0385 28.3702 34.3745 28.0341 34.3745 27.6197V10.8077C34.3745 10.3932 34.0385 10.0572 33.6239 10.0572ZM32.8734 18.4631H28.0199C27.6054 18.4631 27.2694 18.7992 27.2694 19.2137C27.2694 19.6281 27.6054 19.9642 28.0199 19.9642H32.8734V26.8691H25.9685V11.5582H32.8734V18.4631Z" fill="white"/>
<path d="M32.0209 16.3241L30.0709 12.9467C29.9369 12.7145 29.6891 12.5714 29.421 12.5714C29.1528 12.5714 28.9051 12.7145 28.771 12.9467L26.821 16.3241C26.6869 16.5563 26.6869 16.8424 26.821 17.0746C26.9551 17.3068 27.2028 17.4499 27.471 17.4499H31.3709C31.6391 17.4499 31.8869 17.3068 32.0209 17.0746C32.155 16.8424 32.155 16.5563 32.0209 16.3241ZM28.771 15.9488L29.421 14.823L30.0709 15.9488H28.771Z" fill="white"/>
<path d="M32.0209 21.3527C31.8869 21.1205 31.6391 20.9774 31.3709 20.9774H27.471C27.2028 20.9774 26.9551 21.1205 26.821 21.3527C26.6869 21.5849 26.6869 21.871 26.821 22.1032L28.771 25.4806C28.9051 25.7128 29.1528 25.8559 29.421 25.8559C29.6891 25.8559 29.9369 25.7128 30.0709 25.4806L32.0209 22.1032C32.155 21.871 32.155 21.5849 32.0209 21.3527ZM29.421 23.6043L28.771 22.4785H30.0709L29.421 23.6043Z" fill="white"/>
<path d="M19.9642 23.1317C20.3787 23.1317 20.7148 22.7956 20.7148 22.3812V15.6588C20.7148 13.7364 19.3398 12.1036 17.4454 11.7765L16.7278 11.6526C16.518 11.6163 16.3489 11.4785 16.2665 11.2947C17.2702 10.6546 17.9378 9.5321 17.9378 8.25597V7.65554C17.9378 5.6691 16.3217 4.05298 14.3352 4.05298C12.3488 4.05298 10.7326 5.6691 10.7326 7.65554V8.25597C10.7326 9.53203 11.4002 10.6545 12.4037 11.2947C12.3213 11.4785 12.1522 11.6163 11.9424 11.6526L11.225 11.7765C9.33065 12.1036 7.95567 13.7364 7.95567 15.6588V22.3812C7.95567 22.7956 8.29169 23.1317 8.70621 23.1317H10.4331V33.9195H6.3051V33.9196C5.89058 33.9196 5.55457 34.2557 5.55457 34.6701C5.55457 35.0846 5.89058 35.4207 6.3051 35.4207H19.9642C20.3787 35.4207 20.7148 35.0846 20.7148 34.6701C20.7148 34.2557 20.3787 33.9196 19.9642 33.9196H18.2378V23.1317H19.9642ZM12.2337 8.25597V7.65554C12.2337 6.49679 13.1765 5.55405 14.3352 5.55405C15.494 5.55405 16.4367 6.49679 16.4367 7.65554V8.25597C16.4367 9.41472 15.494 10.3575 14.3352 10.3575C13.1765 10.3575 12.2337 9.41472 12.2337 8.25597ZM16.7367 33.9196H15.086V25.364C15.086 24.9496 14.75 24.6135 14.3354 24.6135C13.9209 24.6135 13.5849 24.9496 13.5849 25.364V33.9195H11.9342V21.9099H16.7367V33.9196ZM17.4873 16.1976C17.0728 16.1976 16.7368 16.5336 16.7368 16.9481V20.4088H11.9343V16.9481C11.9343 16.5336 11.5982 16.1976 11.1837 16.1976C10.7692 16.1976 10.4332 16.5336 10.4332 16.9481V21.6306H9.45674V15.6588C9.45674 14.4688 10.3078 13.4581 11.4804 13.2557L12.1978 13.1317C12.9481 13.0022 13.5467 12.4924 13.8115 11.82C13.9826 11.8451 14.1573 11.8585 14.3352 11.8585C14.513 11.8585 14.6877 11.8451 14.8587 11.82C15.1235 12.4924 15.7221 13.0021 16.4724 13.1317L17.1899 13.2557C18.3626 13.4581 19.2137 14.4688 19.2137 15.6588V21.6306H18.2378V16.9481C18.2378 16.5336 17.9018 16.1976 17.4873 16.1976Z" fill="white"/>
<path d="M23.2472 34.1395C23.1076 33.9999 22.914 33.9196 22.7166 33.9196C22.5185 33.9196 22.3256 33.9999 22.186 34.1395C22.0456 34.2791 21.9661 34.4727 21.9661 34.6701C21.9661 34.8675 22.0456 35.0611 22.186 35.2007C22.3256 35.3403 22.5185 35.4206 22.7166 35.4206C22.914 35.4205 23.1076 35.3403 23.2472 35.2007C23.3868 35.0611 23.4671 34.8675 23.4671 34.6701C23.4671 34.4727 23.3868 34.2791 23.2472 34.1395Z" fill="white"/>
</svg>
