<svg width="28" height="40" viewBox="0 0 28 40" fill="none" xmlns="http://www.w3.org/2000/svg">
<path d="M26.9539 1H1.55821C1.41016 1 1.26818 1.05881 1.1635 1.1635C1.05881 1.26818 1 1.41016 1 1.55821V7.20155C1 7.3496 1.05881 7.49158 1.1635 7.59627C1.26818 7.70095 1.41016 7.75976 1.55821 7.75976H2.6523L3.32215 10.8121C3.4226 11.262 3.6461 11.6752 3.96771 12.0056C4.28932 12.3359 4.6964 12.5704 5.14351 12.6829V14.5757C5.14351 19.0538 8.38017 21.5198 14.2567 21.5198C20.1332 21.5198 23.3699 19.0538 23.3699 14.5757V12.6829C23.8169 12.5707 24.224 12.3365 24.5456 12.0064C24.8671 11.6762 25.0906 11.2632 25.1909 10.8133L25.8608 7.75976H26.9549C27.1029 7.75976 27.2449 7.70095 27.3496 7.59627C27.4543 7.49158 27.5131 7.3496 27.5131 7.20155V1.55821C27.5131 1.48482 27.4986 1.41216 27.4705 1.34437C27.4424 1.27658 27.4012 1.21501 27.3492 1.16316C27.2973 1.11131 27.2356 1.07021 27.1678 1.04222C27.1 1.01422 27.0273 0.999875 26.9539 1ZM14.2561 20.4034C10.6079 20.4034 6.2593 19.3922 6.2593 14.5757V12.7575H9.04078V15.1546C9.04078 15.3027 9.09959 15.4446 9.20427 15.5493C9.30896 15.654 9.45094 15.7128 9.59899 15.7128C9.74703 15.7128 9.88902 15.654 9.9937 15.5493C10.0984 15.4446 10.1572 15.3027 10.1572 15.1546V12.7575H12.1454V15.1546C12.1454 15.3027 12.2042 15.4446 12.3089 15.5493C12.4136 15.654 12.5555 15.7128 12.7036 15.7128C12.8516 15.7128 12.9936 15.654 13.0983 15.5493C13.203 15.4446 13.2618 15.3027 13.2618 15.1546V12.7575H15.2503V15.1546C15.2503 15.3027 15.3091 15.4446 15.4138 15.5493C15.5185 15.654 15.6605 15.7128 15.8085 15.7128C15.9566 15.7128 16.0985 15.654 16.2032 15.5493C16.3079 15.4446 16.3667 15.3027 16.3667 15.1546V12.7575H18.3549V15.1546C18.3549 15.3027 18.4137 15.4446 18.5184 15.5493C18.6231 15.654 18.7651 15.7128 18.9131 15.7128C19.0612 15.7128 19.2031 15.654 19.3078 15.5493C19.4125 15.4446 19.4713 15.3027 19.4713 15.1546V12.7575H22.2528V14.5757C22.2528 19.3922 17.9042 20.4034 14.2561 20.4034ZM24.0997 10.5754C24.0354 10.8782 23.8686 11.1496 23.6274 11.3438C23.3863 11.5379 23.0855 11.6429 22.7759 11.6411H5.73617C5.42639 11.6429 5.12548 11.5377 4.88428 11.3433C4.64309 11.1489 4.47641 10.8772 4.41242 10.5741L3.79552 7.75976H24.7166L24.0997 10.5754ZM26.3963 6.64334H25.4276C25.4196 6.64334 25.4116 6.64334 25.4037 6.64334H3.10972C3.1011 6.64334 3.09249 6.64334 3.08356 6.64334H2.11642V2.11642H26.3957L26.3963 6.64334Z" fill="white" stroke="white" stroke-width="0.5"/>
<path d="M20.5157 4.03024H23.5862C23.7343 4.03024 23.8762 3.97143 23.9809 3.86674C24.0856 3.76206 24.1444 3.62007 24.1444 3.47203C24.1444 3.32398 24.0856 3.182 23.9809 3.07731C23.8762 2.97263 23.7343 2.91382 23.5862 2.91382H20.5157C20.3677 2.91382 20.2257 2.97263 20.121 3.07731C20.0163 3.182 19.9575 3.32398 19.9575 3.47203C19.9575 3.62007 20.0163 3.76206 20.121 3.86674C20.2257 3.97143 20.3677 4.03024 20.5157 4.03024Z" fill="white" stroke="white" stroke-width="0.5"/>
<path d="M23.4651 34.5601C20.8378 36.5696 17.626 37.6659 14.3183 37.6821C11.0106 37.6983 7.78825 36.6335 5.14143 34.6498C5.02299 34.5609 4.87412 34.5228 4.72756 34.5437C4.581 34.5647 4.44876 34.643 4.35994 34.7614C4.27111 34.8798 4.23297 35.0287 4.2539 35.1753C4.27484 35.3218 4.35314 35.4541 4.47158 35.5429C7.31299 37.6725 10.7723 38.8156 14.3231 38.7984C17.874 38.7811 21.322 37.6043 24.1426 35.4472C24.2013 35.4029 24.2507 35.3474 24.2879 35.2839C24.3251 35.2204 24.3493 35.1502 24.3593 35.0773C24.3693 35.0044 24.3647 34.9302 24.3459 34.8591C24.3271 34.788 24.2945 34.7212 24.2498 34.6628C24.2051 34.6043 24.1493 34.5553 24.0856 34.5184C24.0219 34.4816 23.9516 34.4577 23.8786 34.4482C23.8057 34.4387 23.7315 34.4436 23.6605 34.4628C23.5895 34.4821 23.523 34.5151 23.4648 34.5601H23.4651Z" fill="white" stroke="white" stroke-width="0.5"/>
<path d="M6.55392 31.8652C6.51003 31.924 6.47814 31.9907 6.46007 32.0618C6.44201 32.1328 6.43813 32.2067 6.44864 32.2793C6.45916 32.3518 6.48387 32.4216 6.52136 32.4846C6.55886 32.5476 6.6084 32.6026 6.66715 32.6464C8.8799 34.2982 11.5719 35.1814 14.3331 35.1616C17.0942 35.1418 19.7733 34.22 21.9621 32.5367C22.0795 32.4465 22.1562 32.3133 22.1754 32.1665C22.1946 32.0197 22.1547 31.8713 22.0645 31.7539C21.9743 31.6365 21.8411 31.5598 21.6943 31.5406C21.5475 31.5214 21.3991 31.5613 21.2817 31.6515C19.2859 33.1865 16.843 34.027 14.3252 34.0451C11.8075 34.0632 9.35278 33.2578 7.33509 31.7517C7.21644 31.6632 7.06748 31.6254 6.92099 31.6467C6.77449 31.668 6.64245 31.7466 6.55392 31.8652Z" fill="white" stroke="white" stroke-width="0.5"/>
<path d="M8.74791 28.964C8.70407 29.0228 8.67224 29.0896 8.65426 29.1607C8.63627 29.2318 8.63247 29.3057 8.64307 29.3783C8.65368 29.4508 8.67848 29.5206 8.71607 29.5835C8.75365 29.6465 8.80327 29.7014 8.8621 29.7452C10.4457 30.9209 12.3708 31.5457 14.343 31.5239C16.3152 31.5021 18.226 30.835 19.7832 29.6246C19.8961 29.5322 19.9683 29.3993 19.9845 29.2543C20.0007 29.1094 19.9595 28.9638 19.8697 28.8488C19.78 28.7338 19.6488 28.6585 19.5042 28.6389C19.3597 28.6194 19.2132 28.6572 19.0962 28.7442C17.7318 29.8042 16.058 30.3883 14.3304 30.4075C12.6029 30.4266 10.9165 29.8796 9.52908 28.8501C9.47031 28.8063 9.40349 28.7745 9.33243 28.7565C9.26136 28.7385 9.18745 28.7347 9.11491 28.7453C9.04237 28.7559 8.97263 28.7806 8.90966 28.8181C8.84669 28.8557 8.79172 28.9052 8.74791 28.964Z" fill="white" stroke="white" stroke-width="0.5"/>
<path d="M14.2426 27.888C15.4644 27.8928 16.6511 27.4793 17.6053 26.716C17.7212 26.6239 17.7957 26.4894 17.8125 26.3423C17.8293 26.1952 17.7869 26.0474 17.6947 25.9315C17.6026 25.8156 17.4681 25.7411 17.321 25.7243C17.1739 25.7075 17.0261 25.7499 16.9102 25.842C16.1754 26.4244 15.2703 26.7505 14.3329 26.7705C13.3955 26.7906 12.4773 26.5035 11.7182 25.953C11.6591 25.908 11.5915 25.8753 11.5196 25.8568C11.4476 25.8382 11.3727 25.8342 11.2991 25.845C11.2256 25.8558 11.155 25.8812 11.0914 25.9196C11.0278 25.9581 10.9725 26.0089 10.9288 26.069C10.8851 26.1291 10.8538 26.1973 10.8368 26.2697C10.8198 26.342 10.8174 26.4171 10.8298 26.4903C10.8422 26.5636 10.8691 26.6337 10.9089 26.6964C10.9488 26.7592 11.0007 26.8134 11.0618 26.8558C11.9853 27.5293 13.0995 27.8909 14.2426 27.888Z" fill="white" stroke="white" stroke-width="0.5"/>
</svg>
