<svg width="39" height="39" viewBox="0 0 39 39" fill="none" xmlns="http://www.w3.org/2000/svg">
<path d="M26.758 26.9374C26.6185 26.7978 26.4255 26.7174 26.2275 26.7174C26.03 26.7174 25.8372 26.7978 25.6968 26.9374C25.5572 27.0769 25.4769 27.2706 25.4769 27.4679C25.4769 27.6653 25.5572 27.859 25.6968 27.9993C25.8372 28.1389 26.03 28.2185 26.2275 28.2185C26.4256 28.2185 26.6185 28.1389 26.758 27.9993C26.8984 27.859 26.978 27.6653 26.978 27.4679C26.978 27.2706 26.8984 27.0769 26.758 26.9374Z" fill="white"/>
<path d="M34.905 29.4157C34.7655 29.276 34.5718 29.1958 34.3744 29.1958C34.177 29.1958 33.9834 29.276 33.8438 29.4157C33.7042 29.5554 33.6239 29.7489 33.6239 29.9463C33.6239 30.1437 33.7041 30.3374 33.8438 30.4769C33.9834 30.6165 34.177 30.6969 34.3744 30.6969C34.5718 30.6969 34.7655 30.6166 34.905 30.4769C35.0447 30.3374 35.125 30.1437 35.125 29.9463C35.125 29.7489 35.0447 29.5553 34.905 29.4157Z" fill="white"/>
<path d="M6.8726 14.9267V14.6104C6.8726 14.6062 6.87208 14.6021 6.872 14.5979H6.90495C7.3194 14.5979 7.65548 14.2619 7.65548 13.8473C7.65548 13.4328 7.3194 13.0968 6.90495 13.0968H5.33919C4.92474 13.0968 4.58865 13.4328 4.58865 13.8473C4.58865 14.2619 4.92474 14.5979 5.33919 14.5979H5.37221C5.37213 14.6021 5.37161 14.6061 5.37161 14.6104V14.9267C3.3279 15.2836 1.76904 17.0694 1.76904 19.2137C1.76904 19.6281 2.10513 19.9642 2.51958 19.9642C2.93402 19.9642 3.27004 19.6281 3.27004 19.2137C3.27004 17.6411 4.54947 16.3616 6.12207 16.3616C7.69466 16.3616 8.9741 17.6411 8.9741 19.2137C8.9741 19.6281 9.31019 19.9642 9.72463 19.9642C10.1391 19.9642 10.4752 19.6281 10.4752 19.2137C10.4752 17.0694 8.91631 15.2835 6.8726 14.9267Z" fill="white"/>
<path d="M37.6768 19.9642H34.5246V14.1299C34.5246 12.6127 33.5002 11.2823 32.0333 10.8946L29.2431 10.1571V8.42242C29.2431 8.38114 29.2389 8.34091 29.2324 8.30136C29.6293 7.72427 29.8622 7.02628 29.8622 6.27477V4.38942V3.82082V0.750534C29.8622 0.336014 29.5261 0 29.1117 0H23.4258C23.0113 0 22.6752 0.336014 22.6752 0.750534V3.8209V4.3895V6.27484C22.6752 7.02635 22.9081 7.72427 23.305 8.30144C23.2986 8.34091 23.2943 8.38114 23.2943 8.4225V10.1572L20.5041 10.8947C19.0372 11.2823 18.0128 12.6127 18.0128 14.1299V19.9642H9.7246H2.51947H0.750534C0.336089 19.9642 0 20.3003 0 20.7147V24.3173C0 24.7318 0.336089 25.0678 0.750534 25.0678H3.30235V37.6768C3.30235 38.0913 3.63844 38.4274 4.05289 38.4274H34.3745C34.7889 38.4274 35.125 38.0913 35.125 37.6768V32.8048C35.125 32.3904 34.7889 32.0543 34.3745 32.0543C33.96 32.0543 33.6239 32.3904 33.6239 32.8048V36.9263H4.80342V28.2188H23.4258C23.8402 28.2188 24.1763 27.8827 24.1763 27.4683C24.1763 27.0538 23.8402 26.7177 23.4258 26.7177H4.80342V25.0678H33.6239V26.7941C33.6239 27.2085 33.96 27.5446 34.3745 27.5446C34.7889 27.5446 35.125 27.2085 35.125 26.7941V25.0678H37.6768C38.0913 25.0678 38.4274 24.7318 38.4274 24.3173V20.7147C38.4274 20.3003 38.0913 19.9642 37.6768 19.9642ZM31.6497 12.3458C32.4586 12.5597 33.0235 13.2933 33.0235 14.1299V19.9642H31.5224V15.1608C31.5224 14.7463 31.1864 14.4103 30.7719 14.4103C30.3575 14.4103 30.0214 14.7463 30.0214 15.1608V19.9642H27.0192V12.2485L28.613 11.5432L31.6497 12.3458ZM27.0192 10.6071V9.78449C27.271 9.73083 27.5127 9.65044 27.742 9.54702V10.2873L27.0192 10.6071ZM24.1763 1.50107H28.3611V3.63897H24.1763V1.50107ZM24.1763 5.14003H28.3611V6.27484C28.3611 7.42609 27.4224 8.36275 26.2687 8.36275C25.115 8.36275 24.1763 7.42616 24.1763 6.27484V5.14003ZM25.5182 9.78449V10.6071L24.7954 10.2873V9.54702C25.0247 9.65044 25.2664 9.73083 25.5182 9.78449ZM19.5139 14.1299C19.5139 13.2933 20.0788 12.5597 20.8877 12.3458L23.9244 11.5432L25.5182 12.2485V19.9642H22.6652V15.1608C22.6652 14.7463 22.3291 14.4103 21.9146 14.4103C21.5002 14.4103 21.1641 14.7463 21.1641 15.1608V19.9642H19.5139V14.1299ZM36.9263 23.5668H1.50107V21.4653H36.9263V23.5668Z" fill="white"/>
<path d="M29.351 14.0791C29.2115 13.9395 29.0179 13.86 28.8205 13.86C28.6223 13.86 28.4295 13.9395 28.2899 14.0791C28.1503 14.2195 28.0699 14.4124 28.0699 14.6105C28.0699 14.8079 28.1502 15.0015 28.2899 15.1411C28.4295 15.2807 28.6231 15.3611 28.8205 15.3611C29.0179 15.3611 29.2115 15.2807 29.351 15.1411C29.4906 15.0015 29.571 14.8079 29.571 14.6105C29.571 14.4124 29.4907 14.2195 29.351 14.0791Z" fill="white"/>
</svg>
