<svg width="25" height="44" viewBox="0 0 25 44" fill="none" xmlns="http://www.w3.org/2000/svg">
<mask id="path-1-inside-1" fill="white">
<path d="M18.1933 24.032C18.5747 23.6683 18.9241 23.2663 19.2338 22.8283C19.4375 22.5404 19.369 22.142 19.0811 21.9383C18.7932 21.7348 18.3948 21.803 18.1912 22.091C16.8854 23.9375 14.7579 25.0399 12.4999 25.0399C8.65928 25.0399 5.53468 21.9153 5.53468 18.0747V14.5986V13.8865C7.77356 14.8087 10.1263 15.3164 12.4999 15.3164C14.9355 15.3164 17.2927 14.7815 19.4652 13.8865V14.5986V18.0747C19.4652 18.7157 19.3781 19.3512 19.2061 19.9633C19.1107 20.3027 19.3087 20.6553 19.6481 20.7506C19.9876 20.8461 20.3401 20.6481 20.4355 20.3086C20.5508 19.8979 20.6328 19.4782 20.6832 19.0538H20.7341C22.0395 19.0538 23.1016 17.9917 23.1016 16.6863V16.3276C23.1016 15.0249 22.044 13.9647 20.7422 13.9604V13.3124C20.7539 13.3067 20.7655 13.3015 20.7771 13.2958C20.7772 13.2958 20.7772 13.2958 20.7773 13.2957C21.233 13.0721 21.5274 12.6002 21.5274 12.0936V11.2835H22.1547C22.5074 11.2835 22.7932 10.9977 22.7932 10.645C22.7932 10.2923 22.5074 10.0065 22.1547 10.0065H22.1425V9.1928C22.1425 7.91735 22.5031 6.67349 23.1853 5.59572C23.4809 5.12886 23.4778 4.55141 23.177 4.08888C22.8774 3.62807 22.3537 3.39182 21.8086 3.47185L21.0654 3.5815C18.3484 3.9823 15.6179 2.88078 13.9393 0.70702C13.5923 0.257609 13.0677 0 12.4999 0C11.9322 0 11.4076 0.257609 11.0606 0.70702C10.3611 1.61299 9.44811 2.36113 8.42031 2.87065C8.10439 3.02729 7.97516 3.41038 8.1318 3.72631C8.28853 4.04223 8.67162 4.17129 8.98746 4.01482C10.1877 3.41975 11.2541 2.54587 12.0714 1.48751C12.1746 1.35377 12.3309 1.27698 12.4999 1.27698C12.669 1.27698 12.8253 1.35368 12.9286 1.48751C14.889 4.02623 18.0779 5.31265 21.2517 4.84486L21.9949 4.73521C22.0127 4.7324 22.0671 4.72456 22.1065 4.78492C22.1474 4.84801 22.1166 4.89679 22.1065 4.91279C21.2947 6.19513 20.8657 7.67515 20.8657 9.1928V10.0065H4.13434V9.1928C4.13434 7.67515 3.70528 6.19513 2.89355 4.91288C2.88342 4.89687 2.8526 4.84801 2.89355 4.78492C2.93288 4.72448 2.98728 4.73257 3.00499 4.73521L3.74827 4.84486C4.5606 4.96464 5.38672 4.97068 6.20399 4.8629C6.55354 4.81676 6.79957 4.49599 6.75343 4.14635C6.70729 3.79671 6.38617 3.55025 6.03687 3.59691C5.33726 3.68928 4.62981 3.68408 3.93471 3.5815L3.19134 3.47185C2.6465 3.39165 2.12251 3.62807 1.82301 4.08888C1.52233 4.55149 1.51918 5.12886 1.81467 5.5958C2.49692 6.67349 2.85745 7.91735 2.85745 9.1928V10.0065H2.84528C2.49258 10.0065 2.20679 10.2923 2.20679 10.645C2.20679 10.9977 2.49258 11.2835 2.84528 11.2835H3.47262V12.0936C3.47262 12.6002 3.767 13.0721 4.2228 13.2958C4.23446 13.3015 4.24604 13.3067 4.2577 13.3124V13.9604C2.95603 13.9648 1.89827 15.0249 1.89827 16.3276V16.6863C1.89827 17.9917 2.96038 19.0538 4.26579 19.0538H4.3161C4.54766 21.0012 5.46027 22.7425 6.8091 24.0316C2.84375 25.0621 0 28.6597 0 32.8448V41.2149C0 42.4965 1.04261 43.5391 2.32427 43.5391H4.32206C4.67476 43.5391 4.96055 43.2533 4.96055 42.9006C4.96055 42.5479 4.67476 42.2621 4.32206 42.2621H2.32427C1.74682 42.2621 1.27698 41.7923 1.27698 41.2149V32.8447C1.27698 31.2609 1.75261 29.7328 2.63219 28.4419H7.39796L9.13891 32.5254C9.21476 32.7032 9.36698 32.8371 9.55291 32.8895C9.91608 32.9917 10.1483 32.7475 10.194 32.7258L10.5905 33.1223L8.66132 42.262H6.87483C6.52212 42.262 6.23634 42.5478 6.23634 42.9005C6.23634 43.2532 6.52212 43.539 6.87483 43.539H22.6757C23.9574 43.539 25 42.4964 25 41.2148V32.8447C25 28.6816 22.1769 25.0684 18.1933 24.032ZM21.8248 16.3275V16.6862C21.8248 17.2848 21.3399 17.7724 20.7423 17.7767V15.2371C21.3398 15.2413 21.8248 15.7289 21.8248 16.3275ZM20.2504 11.2834C20.2371 12.0985 20.2798 12.117 20.2148 12.1493C17.8308 13.3186 15.2195 14.0439 12.4999 14.0439C9.78165 14.0439 7.16623 13.3174 4.78526 12.1493C4.76355 12.1386 4.74951 12.1167 4.74951 12.0935V11.2834H20.2504ZM3.17525 16.6862V16.3275C3.17525 15.7289 3.66008 15.2413 4.2577 15.237V17.7766C3.66008 17.7724 3.17525 17.2848 3.17525 16.6862ZM14.9973 31.2951L13.2807 30.0745L14.9486 25.9431C15.5272 25.7625 16.0834 25.5184 16.6074 25.217L16.7659 25.3468C17.1008 25.6213 17.216 26.091 17.0462 26.4892L14.9973 31.2951ZM18.221 26.9901C18.4419 26.4718 18.453 25.9011 18.2819 25.3886C19.3962 25.7451 20.4201 26.3497 21.2792 27.1649H18.1465L18.221 26.9901ZM13.4428 26.2619L12.5 28.5972L11.5576 26.2627C11.867 26.2981 12.1813 26.3169 12.5 26.3169C12.8169 26.3169 13.1315 26.2979 13.4428 26.2619ZM3.72077 27.1649C4.57993 26.3497 5.60381 25.7451 6.7181 25.3886C6.54698 25.9011 6.55805 26.4718 6.77897 26.9901L6.85346 27.1649H3.72077ZM7.9537 26.4893C7.78395 26.091 7.89913 25.6214 8.23404 25.3469L8.39145 25.2179C8.91212 25.5185 9.46845 25.764 10.0525 25.946L11.7193 30.0746L10.0027 31.2952L7.9537 26.4893ZM12.5 31.0863L13.7504 31.9753L12.5 33.2257L11.2497 31.9753L12.5 31.0863ZM9.96639 42.262L11.6681 34.1999C11.9594 34.4471 12.102 34.7672 12.5 34.7672C12.8979 34.7672 13.0385 34.4488 13.3319 34.1997L15.0336 42.262H9.96639ZM23.723 41.2148C23.723 41.7922 23.2532 42.262 22.6757 42.262H16.3386L14.4094 33.1222L14.8058 32.7258C14.8517 32.7476 15.0834 32.9918 15.4469 32.8896C15.6329 32.8372 15.7852 32.7032 15.8609 32.5255L17.6019 28.442H22.3676C23.2472 29.733 23.7229 31.261 23.7229 32.8448V41.2148H23.723Z"/>
</mask>
<path d="M18.1933 24.032C18.5747 23.6683 18.9241 23.2663 19.2338 22.8283C19.4375 22.5404 19.369 22.142 19.0811 21.9383C18.7932 21.7348 18.3948 21.803 18.1912 22.091C16.8854 23.9375 14.7579 25.0399 12.4999 25.0399C8.65928 25.0399 5.53468 21.9153 5.53468 18.0747V14.5986V13.8865C7.77356 14.8087 10.1263 15.3164 12.4999 15.3164C14.9355 15.3164 17.2927 14.7815 19.4652 13.8865V14.5986V18.0747C19.4652 18.7157 19.3781 19.3512 19.2061 19.9633C19.1107 20.3027 19.3087 20.6553 19.6481 20.7506C19.9876 20.8461 20.3401 20.6481 20.4355 20.3086C20.5508 19.8979 20.6328 19.4782 20.6832 19.0538H20.7341C22.0395 19.0538 23.1016 17.9917 23.1016 16.6863V16.3276C23.1016 15.0249 22.044 13.9647 20.7422 13.9604V13.3124C20.7539 13.3067 20.7655 13.3015 20.7771 13.2958C20.7772 13.2958 20.7772 13.2958 20.7773 13.2957C21.233 13.0721 21.5274 12.6002 21.5274 12.0936V11.2835H22.1547C22.5074 11.2835 22.7932 10.9977 22.7932 10.645C22.7932 10.2923 22.5074 10.0065 22.1547 10.0065H22.1425V9.1928C22.1425 7.91735 22.5031 6.67349 23.1853 5.59572C23.4809 5.12886 23.4778 4.55141 23.177 4.08888C22.8774 3.62807 22.3537 3.39182 21.8086 3.47185L21.0654 3.5815C18.3484 3.9823 15.6179 2.88078 13.9393 0.70702C13.5923 0.257609 13.0677 0 12.4999 0C11.9322 0 11.4076 0.257609 11.0606 0.70702C10.3611 1.61299 9.44811 2.36113 8.42031 2.87065C8.10439 3.02729 7.97516 3.41038 8.1318 3.72631C8.28853 4.04223 8.67162 4.17129 8.98746 4.01482C10.1877 3.41975 11.2541 2.54587 12.0714 1.48751C12.1746 1.35377 12.3309 1.27698 12.4999 1.27698C12.669 1.27698 12.8253 1.35368 12.9286 1.48751C14.889 4.02623 18.0779 5.31265 21.2517 4.84486L21.9949 4.73521C22.0127 4.7324 22.0671 4.72456 22.1065 4.78492C22.1474 4.84801 22.1166 4.89679 22.1065 4.91279C21.2947 6.19513 20.8657 7.67515 20.8657 9.1928V10.0065H4.13434V9.1928C4.13434 7.67515 3.70528 6.19513 2.89355 4.91288C2.88342 4.89687 2.8526 4.84801 2.89355 4.78492C2.93288 4.72448 2.98728 4.73257 3.00499 4.73521L3.74827 4.84486C4.5606 4.96464 5.38672 4.97068 6.20399 4.8629C6.55354 4.81676 6.79957 4.49599 6.75343 4.14635C6.70729 3.79671 6.38617 3.55025 6.03687 3.59691C5.33726 3.68928 4.62981 3.68408 3.93471 3.5815L3.19134 3.47185C2.6465 3.39165 2.12251 3.62807 1.82301 4.08888C1.52233 4.55149 1.51918 5.12886 1.81467 5.5958C2.49692 6.67349 2.85745 7.91735 2.85745 9.1928V10.0065H2.84528C2.49258 10.0065 2.20679 10.2923 2.20679 10.645C2.20679 10.9977 2.49258 11.2835 2.84528 11.2835H3.47262V12.0936C3.47262 12.6002 3.767 13.0721 4.2228 13.2958C4.23446 13.3015 4.24604 13.3067 4.2577 13.3124V13.9604C2.95603 13.9648 1.89827 15.0249 1.89827 16.3276V16.6863C1.89827 17.9917 2.96038 19.0538 4.26579 19.0538H4.3161C4.54766 21.0012 5.46027 22.7425 6.8091 24.0316C2.84375 25.0621 0 28.6597 0 32.8448V41.2149C0 42.4965 1.04261 43.5391 2.32427 43.5391H4.32206C4.67476 43.5391 4.96055 43.2533 4.96055 42.9006C4.96055 42.5479 4.67476 42.2621 4.32206 42.2621H2.32427C1.74682 42.2621 1.27698 41.7923 1.27698 41.2149V32.8447C1.27698 31.2609 1.75261 29.7328 2.63219 28.4419H7.39796L9.13891 32.5254C9.21476 32.7032 9.36698 32.8371 9.55291 32.8895C9.91608 32.9917 10.1483 32.7475 10.194 32.7258L10.5905 33.1223L8.66132 42.262H6.87483C6.52212 42.262 6.23634 42.5478 6.23634 42.9005C6.23634 43.2532 6.52212 43.539 6.87483 43.539H22.6757C23.9574 43.539 25 42.4964 25 41.2148V32.8447C25 28.6816 22.1769 25.0684 18.1933 24.032ZM21.8248 16.3275V16.6862C21.8248 17.2848 21.3399 17.7724 20.7423 17.7767V15.2371C21.3398 15.2413 21.8248 15.7289 21.8248 16.3275ZM20.2504 11.2834C20.2371 12.0985 20.2798 12.117 20.2148 12.1493C17.8308 13.3186 15.2195 14.0439 12.4999 14.0439C9.78165 14.0439 7.16623 13.3174 4.78526 12.1493C4.76355 12.1386 4.74951 12.1167 4.74951 12.0935V11.2834H20.2504ZM3.17525 16.6862V16.3275C3.17525 15.7289 3.66008 15.2413 4.2577 15.237V17.7766C3.66008 17.7724 3.17525 17.2848 3.17525 16.6862ZM14.9973 31.2951L13.2807 30.0745L14.9486 25.9431C15.5272 25.7625 16.0834 25.5184 16.6074 25.217L16.7659 25.3468C17.1008 25.6213 17.216 26.091 17.0462 26.4892L14.9973 31.2951ZM18.221 26.9901C18.4419 26.4718 18.453 25.9011 18.2819 25.3886C19.3962 25.7451 20.4201 26.3497 21.2792 27.1649H18.1465L18.221 26.9901ZM13.4428 26.2619L12.5 28.5972L11.5576 26.2627C11.867 26.2981 12.1813 26.3169 12.5 26.3169C12.8169 26.3169 13.1315 26.2979 13.4428 26.2619ZM3.72077 27.1649C4.57993 26.3497 5.60381 25.7451 6.7181 25.3886C6.54698 25.9011 6.55805 26.4718 6.77897 26.9901L6.85346 27.1649H3.72077ZM7.9537 26.4893C7.78395 26.091 7.89913 25.6214 8.23404 25.3469L8.39145 25.2179C8.91212 25.5185 9.46845 25.764 10.0525 25.946L11.7193 30.0746L10.0027 31.2952L7.9537 26.4893ZM12.5 31.0863L13.7504 31.9753L12.5 33.2257L11.2497 31.9753L12.5 31.0863ZM9.96639 42.262L11.6681 34.1999C11.9594 34.4471 12.102 34.7672 12.5 34.7672C12.8979 34.7672 13.0385 34.4488 13.3319 34.1997L15.0336 42.262H9.96639ZM23.723 41.2148C23.723 41.7922 23.2532 42.262 22.6757 42.262H16.3386L14.4094 33.1222L14.8058 32.7258C14.8517 32.7476 15.0834 32.9918 15.4469 32.8896C15.6329 32.8372 15.7852 32.7032 15.8609 32.5255L17.6019 28.442H22.3676C23.2472 29.733 23.7229 31.261 23.7229 32.8448V41.2148H23.723Z" fill="white" stroke="white" mask="url(#path-1-inside-1)"/>
<path d="M12.7284 8.72852L12.7284 8.72854C12.6603 8.77804 12.5803 8.80277 12.5001 8.80277C12.4199 8.80277 12.3399 8.77803 12.2717 8.72856L11.4344 8.12035C11.4344 8.12034 11.4343 8.12033 11.4343 8.12032C10.5899 7.50675 10.2396 6.42844 10.5622 5.4359L10.5622 5.4359L10.882 4.4516L10.882 4.45158C10.934 4.29147 11.0832 4.18311 11.2515 4.18311H13.7485C13.9168 4.18311 14.066 4.29147 14.118 4.45158L14.118 4.4516L14.4378 5.4359L14.4378 5.4359C14.7604 6.42845 14.41 7.50677 13.5656 8.12025L13.5656 8.12025L12.7284 8.72852ZM11.3012 5.67596L11.3012 5.67599C11.0833 6.34689 11.3205 7.07709 11.8912 7.49176L11.8912 7.49181L12.3532 7.82731L12.5001 7.934L12.647 7.8273L13.109 7.49179L13.109 7.49177C13.6798 7.07709 13.9169 6.34686 13.6989 5.67599L13.6989 5.67596L13.5225 5.1329L13.4663 4.96017H13.2847H11.7155H11.5338L11.4777 5.1329L11.3012 5.67596Z" fill="white" stroke="white" stroke-width="0.5"/>
<path d="M21.6961 32.5582L21.6961 32.5582L20.9052 32.4432L20.7751 32.4243L20.717 32.3064L20.3634 31.5899C20.3634 31.5899 20.3634 31.5899 20.3634 31.5899C20.2571 31.3744 20.0434 31.2416 19.8031 31.2416H19.8031H19.8031H19.8031H19.8031H19.8031H19.8031H19.8031H19.8031H19.8031H19.8031H19.8031H19.8031H19.8031H19.8031H19.8031H19.8031H19.8031H19.8031H19.8031H19.8031H19.8031H19.8031H19.8031H19.8031H19.8031H19.8031H19.8031H19.8031H19.8031H19.8031H19.8031H19.803H19.803H19.803H19.803H19.803H19.803H19.803H19.803H19.803H19.803H19.803H19.803H19.803H19.803H19.803H19.803H19.803H19.803H19.803H19.803H19.803H19.803H19.803L21.6961 32.5582ZM21.6961 32.5582C21.9337 32.5927 22.1262 32.7548 22.2007 32.9834L21.6961 32.5582ZM19.2428 31.5899L19.2428 31.5899L18.8892 32.3065L18.831 32.4244L18.7009 32.4433L17.9101 32.5582L17.9101 32.5582C17.6724 32.5927 17.48 32.7549 17.4057 32.9835L19.2428 31.5899ZM19.2428 31.5899C19.349 31.3746 19.5627 31.2417 19.8029 31.2416L19.2428 31.5899ZM18.2302 34.2734L18.208 34.4029L18.073 35.1904L18.073 35.1905C18.0323 35.4274 18.127 35.6604 18.3215 35.8017C18.5162 35.9431 18.7673 35.9609 18.9795 35.8493L18.9796 35.8493L19.6869 35.4774L19.8032 35.4162L19.9195 35.4774L20.6267 35.8492L20.6268 35.8492C20.8394 35.9611 21.0903 35.943 21.2848 35.8018C21.4791 35.6606 21.574 35.4275 21.5334 35.1905L21.3983 34.403L21.3761 34.2735L21.4702 34.1817L22.0424 33.624C22.2145 33.4562 22.2748 33.212 22.2007 32.9835L18.2302 34.2734ZM18.2302 34.2734L18.1361 34.1816M18.2302 34.2734L18.1361 34.1816M18.1361 34.1816L17.5639 33.624C17.5639 33.624 17.5639 33.6239 17.5639 33.6239M18.1361 34.1816L17.5639 33.6239M17.5639 33.6239C17.3918 33.4562 17.3315 33.212 17.4057 32.9835L17.5639 33.6239ZM18.6898 33.6363L18.8299 33.7728C18.8299 33.7728 18.8299 33.7728 18.8299 33.7729C18.9773 33.9166 19.0444 34.1234 19.0095 34.3264L19.0095 34.3265L18.9765 34.5189L18.8907 35.0184L19.3392 34.7824L19.5123 34.6914C19.6945 34.5956 19.9117 34.5957 20.0937 34.6913C20.0937 34.6913 20.0937 34.6913 20.0937 34.6913L20.2669 34.7823L20.7153 35.0181L20.6297 34.5188L20.5967 34.3262C20.5967 34.3261 20.5967 34.3261 20.5967 34.3261C20.5619 34.123 20.6291 33.9163 20.7763 33.773C20.7763 33.7729 20.7763 33.7729 20.7763 33.7729L20.9166 33.6364L21.2798 33.2828L20.7782 33.2099L20.5845 33.1817L20.5843 33.1817C20.3812 33.1523 20.2052 33.0245 20.1141 32.8398L20.114 32.8398L20.0275 32.6644L19.8033 32.2105L19.5791 32.6644L19.4925 32.8398L19.4924 32.8399C19.4013 33.0245 19.2254 33.1523 19.0219 33.1817L19.0217 33.1818L18.8283 33.2099L18.327 33.2827L18.6898 33.6363Z" fill="white" stroke="white" stroke-width="0.5"/>
<path d="M7.59866 35.4196H7.84866V35.1696V34.3512V34.1012H7.59866H3.47717H3.22717V34.3512V35.1696V35.4196H3.47717H7.59866ZM8.62564 34.1739V35.3469C8.62564 35.8151 8.24424 36.1965 7.77591 36.1965H3.29984C2.8316 36.1965 2.4502 35.8151 2.4502 35.3469V34.1739C2.4502 33.7056 2.8316 33.3242 3.29984 33.3242H7.77591C8.24424 33.3242 8.62564 33.7056 8.62564 34.1739Z" fill="white" stroke="white" stroke-width="0.5"/>
</svg>
