<svg width="41" height="40" viewBox="0 0 41 40" fill="none" xmlns="http://www.w3.org/2000/svg">
<path d="M17.8672 20.0532L17.0361 19.1725C19.0293 17.3592 22.1086 17.3592 24.1018 19.1725L23.2707 20.0532C21.7464 18.6665 19.3915 18.6665 17.8672 20.0532Z" fill="white" stroke="white" stroke-width="0.5"/>
<path d="M31.5773 34.6239H37.6928V33.4231H34.0235V1H7.11545V33.4231H3.44617V34.6239H15.2991L15.9106 35.8248L16.5222 37.0256L16.756 37.4845C17.3589 38.6783 18.6008 39.4318 19.9579 39.4274H29.4369L31.2715 37.0256L31.5773 35.8248V34.6239ZM30.3542 35.8248V36.2253L28.8253 38.2265H19.9579C19.0645 38.2297 18.2469 37.7337 17.8501 36.9477L15.2166 31.7772C15.0805 31.5095 15.0647 31.1976 15.173 30.9179C15.2814 30.6379 15.5042 30.4154 15.7873 30.304C15.9166 30.253 16.0548 30.2266 16.1946 30.2263C16.5753 30.2266 16.9283 30.4224 17.1247 30.7429L18.7787 33.4231H19.9579V22.3152C19.9579 21.8177 20.3685 21.4145 20.8752 21.4145C21.382 21.4145 21.7926 21.8177 21.7926 22.3152V29.8205H23.0157V28.0192H24.2387C24.5765 28.0192 24.8503 28.2881 24.8503 28.6197V31.0214H26.0734V29.2201H27.2965C27.6342 29.2201 27.908 29.4889 27.908 29.8205V32.2222H29.1311V30.4209H29.7427C30.0804 30.4209 30.3542 30.6898 30.3542 31.0214V35.8248ZM25.4618 16.6111V23.8162H23.0157V22.3152C23.0157 21.1545 22.0574 20.2137 20.8752 20.2137C19.6931 20.2137 18.7348 21.1545 18.7348 22.3152V23.8162H15.6771V16.6111H25.4618ZM16.9002 15.4103V13.0085C16.9002 11.019 18.5431 9.40598 20.5695 9.40598C22.5961 9.40598 24.2387 11.019 24.2387 13.0085V15.4103H16.9002ZM29.7427 29.2201H29.0266C28.7665 28.5009 28.0738 28.0201 27.2965 28.0192H25.9689C25.7088 27.3001 25.016 26.8193 24.2387 26.8184H23.0157V25.0171H26.6849V15.4103H25.4618V13.0085C25.4618 10.3556 23.2716 8.20513 20.5695 8.20513C17.8674 8.20513 15.6771 10.3556 15.6771 13.0085V15.4103H14.454V25.0171H18.7348V31.034L18.1711 30.1207C17.5261 29.0817 16.162 28.7258 15.0769 29.3136C13.9918 29.9014 13.571 31.2245 14.1226 32.314L14.6875 33.4231H10.7847H9.56163H8.33854V2.20085H32.8004V33.4231H31.5773V31.0214C31.5773 30.0266 30.7558 29.2201 29.7427 29.2201Z" fill="white" stroke="white" stroke-width="0.5"/>
<path d="M11.3962 14.2095C10.383 14.2095 9.56152 15.016 9.56152 16.0108V18.4125C9.56152 19.4072 10.383 20.2137 11.3962 20.2137C12.4093 20.2137 13.2308 19.4072 13.2308 18.4125V16.0108C13.2308 15.016 12.4093 14.2095 11.3962 14.2095ZM12.0077 18.4125C12.0077 18.744 11.7339 19.0129 11.3962 19.0129C11.0584 19.0129 10.7846 18.744 10.7846 18.4125V16.0108C10.7846 15.6792 11.0584 15.4103 11.3962 15.4103C11.7339 15.4103 12.0077 15.6792 12.0077 16.0108V18.4125Z" fill="white" stroke="white" stroke-width="0.5"/>
<path d="M1 33.423H2.22309V34.6238H1V33.423Z" fill="white" stroke="white" stroke-width="0.5"/>
<path d="M38.9158 33.423H40.1389V34.6238H38.9158V33.423Z" fill="white" stroke="white" stroke-width="0.5"/>
</svg>
