<svg width="39" height="29" viewBox="0 0 39 29" fill="none" xmlns="http://www.w3.org/2000/svg">
<path d="M37.6768 14.6407H33.0575C32.4226 13.7376 31.4685 13.0978 30.3803 12.8599L27.0806 12.1384C28.4309 11.2277 29.3207 9.68399 29.3207 7.9363V6.10372V5.25584V5.06505C29.3207 2.27217 27.0486 0 24.2557 0C21.4628 0 19.1906 2.27217 19.1906 5.06505V5.25584V6.10372V7.9363C19.1906 9.68174 20.0781 11.2239 21.4256 12.135L18.128 12.8585C17.9872 12.8894 17.8487 12.9273 17.7126 12.9712V6.76014C17.7126 6.34569 17.3765 6.0096 16.9621 6.0096H11.8584C11.444 6.0096 11.1079 6.34569 11.1079 6.76014C11.1079 7.17458 11.444 7.51067 11.8584 7.51067H16.2115V18.0182H11.1079V14.2655C11.1079 13.0239 10.0978 12.0139 8.85631 12.0139C7.61477 12.0139 6.6047 13.0239 6.6047 14.2655V18.0182H1.50107V7.51067H5.85417C6.26861 7.51067 6.6047 7.17458 6.6047 6.76014C6.6047 6.34569 6.26861 6.0096 5.85417 6.0096H0.750534C0.336089 6.0096 0 6.34569 0 6.76014V18.7687C0 19.1831 0.336089 19.5192 0.750534 19.5192H6.6047V20.9452H6.52965C5.24669 20.9452 4.20299 21.9889 4.20299 23.2719V23.6472H0.750534C0.336089 23.6472 0 23.9832 0 24.3977V27.3998C0 27.8143 0.336089 28.1504 0.750534 28.1504H37.6768C38.0913 28.1504 38.4274 27.8143 38.4274 27.3998V24.3977V21.3956V18.3934V15.3913C38.4274 14.9768 38.0913 14.6407 37.6768 14.6407ZM33.112 23.6472H28.8205V22.1461H36.9263V23.6472H33.112ZM36.9263 20.645H28.8205V19.144H36.9263V20.645ZM36.9263 17.6429H28.8205V16.1418H32.6388C32.641 16.1418 32.6433 16.1423 32.6455 16.1423C32.6478 16.1423 32.6502 16.1418 32.6525 16.1418H36.9263V17.6429ZM20.6916 5.06513C20.6916 3.09993 22.2905 1.50114 24.2556 1.50114C26.1269 1.50114 27.666 2.95073 27.8088 4.78601L26.0641 3.761C25.7481 3.57524 25.3441 3.64512 25.1087 3.92604C24.3487 4.83307 23.2341 5.35334 22.0507 5.35334H20.6917V5.25599V5.06513H20.6916ZM20.6916 6.85433H22.0507C23.4636 6.85433 24.8052 6.31552 25.8188 5.35776L27.8197 6.53333V7.93637C27.8197 9.90157 26.2208 11.5004 24.2557 11.5004C22.2906 11.5004 20.6917 9.9015 20.6917 7.93637V6.85433H20.6916ZM25.4314 12.8622L24.2444 16.0365L23.0553 12.8565C23.4403 12.9505 23.8421 13.0014 24.2556 13.0014C24.6605 13.0014 25.0538 12.9523 25.4314 12.8622ZM16.9621 19.5192C17.3765 19.5192 17.7126 19.1831 17.7126 18.7687V14.594C17.9441 14.472 18.191 14.3814 18.4496 14.3247L21.7325 13.6045L23.5415 18.4422C23.6511 18.7354 23.9313 18.9298 24.2444 18.9298C24.5576 18.9298 24.8377 18.7354 24.9474 18.4421L26.7565 13.6041L30.0597 14.3263C30.3496 14.3897 30.6247 14.497 30.8779 14.6407H28.07C27.6555 14.6407 27.3194 14.9768 27.3194 15.3912V18.3933V21.3955V23.6471H16.1499V19.5191H16.9621V19.5192ZM14.6489 19.5192V23.6472H13.5096V23.2719C13.5096 21.9889 12.4659 20.9452 11.183 20.9452H11.1079V19.5192H14.6489ZM8.10577 14.2655C8.10577 13.8516 8.44246 13.5149 8.85631 13.5149C9.27015 13.5149 9.60684 13.8516 9.60684 14.2655V20.9452H8.10577V14.2655ZM5.70406 23.2719C5.70406 22.8167 6.07445 22.4463 6.52965 22.4463H7.35524H10.3574H11.183C11.6382 22.4463 12.0085 22.8167 12.0085 23.2719V23.6472H5.70406V23.2719ZM36.9263 26.6493H1.50107V25.1482H36.9263V26.6493Z" fill="white"/>
<path d="M8.32562 6.22955C8.18602 6.36915 8.10571 6.56279 8.10571 6.76018C8.10571 6.95757 8.18595 7.15121 8.32562 7.29073C8.46522 7.43033 8.65886 7.51071 8.85625 7.51071C9.05364 7.51071 9.24728 7.43041 9.3868 7.29073C9.52647 7.15121 9.60678 6.95757 9.60678 6.76018C9.60678 6.56279 9.52647 6.36915 9.3868 6.22955C9.24728 6.08995 9.05364 6.00964 8.85625 6.00964C8.65886 6.00964 8.46522 6.08988 8.32562 6.22955Z" fill="white"/>
</svg>
