<svg width="39" height="33" viewBox="0 0 39 33" fill="none" xmlns="http://www.w3.org/2000/svg">
<path d="M37.9674 10.5756L9.68249 0.0436894C9.32071 -0.0906746 8.91876 0.0952545 8.78537 0.459157C8.78507 0.459452 8.78507 0.459746 8.78478 0.460041L5.65364 9.02604C5.52054 9.38994 5.70612 9.79363 6.06819 9.9274H6.06878L9.34739 11.1373L8.625 13.1153C8.49219 13.4792 8.67777 13.8823 9.03985 14.0161L15.5982 16.4361L15.1163 17.7547C14.6782 18.9357 15.0869 20.2652 16.1119 20.9915V24.5746H6.71201C6.257 23.5291 5.32587 22.7701 4.21385 22.5385V21.064C4.21385 20.6762 3.90132 20.3618 3.5152 20.3618H0.698643C0.312821 20.3618 0 20.6762 0 21.064V32.2978C0 32.6859 0.312821 33 0.698643 33H3.5152C3.90132 33 4.21385 32.6859 4.21385 32.2978V30.8237C5.32587 30.5918 6.257 29.833 6.71201 28.7873H16.1119V29.4894C16.1119 30.6528 17.0501 31.596 18.2075 31.596C19.365 31.596 20.3034 30.6528 20.3034 29.4894V21.7114C20.9385 21.3949 21.429 20.8459 21.6735 20.1771L22.1554 18.8585L28.0577 21.0351C28.1348 21.0637 28.216 21.0781 28.2981 21.0781C28.591 21.0781 28.8531 20.8946 28.9542 20.6182L29.2161 19.9013C31.4894 20.3312 33.6788 18.8275 34.1063 16.5431C34.2643 15.6989 34.1617 14.8264 33.8122 14.0426L38.0472 11.8571C38.3905 11.6803 38.5262 11.2572 38.3503 10.9121C38.2706 10.7554 38.1351 10.6346 37.9709 10.5736L37.9674 10.5756ZM17.5089 21.6312L18.0873 21.8419C18.3506 21.9368 18.6268 21.9913 18.9062 22.0034V24.5746H17.5089V21.6312ZM2.81685 31.596H1.39729V21.7662H2.81685V31.596ZM5.61113 27.3832C5.60996 28.2755 5.05057 29.0707 4.21385 29.3695V23.9926C5.05057 24.2911 5.60996 25.0864 5.61113 25.9789V27.3832ZM7.03011 25.9789H18.9062V27.3832H7.03011V25.9789ZM18.2075 30.1916C17.8217 30.1916 17.5089 29.8772 17.5089 29.4894V28.7873H18.9062V29.4894C18.9062 29.8772 18.5933 30.1916 18.2075 30.1916ZM20.8441 18.3749L20.3621 19.6935C20.0959 20.4208 19.2934 20.7938 18.5693 20.5268L17.2553 20.043C16.5311 19.7758 16.1594 18.969 16.4253 18.2409C16.4253 18.2409 16.4253 18.2409 16.4253 18.2406L16.9076 16.9229L20.4486 18.2294L20.8441 18.3749ZM27.8839 19.4773L10.1771 12.9423L10.6594 11.6237L21.1516 15.4961C21.3999 15.5869 21.6784 15.53 21.8717 15.3485L23.8321 13.4936L29.3286 15.5227L27.8839 19.4773ZM32.6072 16.7331C32.1645 17.9327 30.9739 18.6823 29.7071 18.5588L30.7866 15.6034L32.5498 14.6908C32.8257 15.3397 32.8462 16.0698 32.6072 16.7331ZM30.2492 14.3054C30.2123 14.3087 30.1756 14.3152 30.1396 14.3249L23.911 12.0262C23.6627 11.9346 23.3842 11.9915 23.1912 12.1736L21.2284 14.0287L7.20602 8.85337L9.85459 1.60538L35.9931 11.3382L30.2492 14.3054Z" fill="white"/>
<path d="M12.9336 9.47076L13.415 8.15247L14.7267 8.63659L14.245 9.95489L12.9336 9.47076Z" fill="white"/>
<path d="M15.5569 10.4389L16.0383 9.12061L17.35 9.60473L16.8683 10.9227L15.5569 10.4389Z" fill="white"/>
<path d="M18.1799 11.4075L18.6616 10.0892L19.973 10.5734L19.4913 11.8917L18.1799 11.4075Z" fill="white"/>
</svg>
