<svg width="40" height="214" viewBox="0 0 40 214" fill="none" xmlns="http://www.w3.org/2000/svg">
<path d="M18.6592 23.1624C26.7281 27.9459 30.7625 30.7153 30.7625 35.2471C30.7625 39.7788 26.9802 42.5482 18.6592 47.3317C10.3382 52.1153 1.8584e-06 58.1577 1.70529e-06 70.9977C1.55217e-06 83.8377 10.3382 89.88 18.6592 94.6635C26.7281 99.4471 30.7625 102.216 30.7625 106.748C30.7625 111.28 26.9802 114.049 18.6592 118.833C10.3382 123.617 1.00576e-06 129.659 8.52643e-07 142.499C6.99527e-07 155.339 10.3382 161.381 18.6592 166.165C26.7281 170.948 30.7625 173.718 30.7625 178.249C30.7625 182.781 26.9802 185.551 18.6592 190.334C10.3382 195.118 1.53115e-07 201.16 0 214L65.6975 214L65.6975 7.83435e-07L2.55192e-06 0C2.40481e-06 12.3365 10.3382 18.3788 18.6592 23.1624Z" fill="#CBA052"/>
</svg>
